<svg xmlns="http://www.w3.org/2000/svg" viewBox="0 0 360 274" fill="none">
  <defs><pattern id="grid" width="22" height="22" patternUnits="userSpaceOnUse"><path d="M22 0H0V22" stroke="#dce6df" stroke-width=".7"/></pattern><marker id="arrow" viewBox="0 0 10 10" refX="8" refY="5" markerWidth="5" markerHeight="5" orient="auto-start-reverse"><path d="m0 0 10 5-10 5" fill="#54776e"/></marker></defs>
  <rect width="360" height="274" fill="#edf3ee"/>
  <rect x="18" y="18" width="324" height="200" fill="url(#grid)"/>
  <text x="25" y="35" fill="#42645c" font-family="Arial,sans-serif" font-size="10" letter-spacing="1.7">DYNAMIC LOCAL PLANNING</text>
  <rect x="92" y="57" width="70" height="29" rx="4" fill="#c5d2c7"/>
  <rect x="235" y="159" width="70" height="33" rx="4" fill="#c5d2c7"/>
  <path d="M52 168H313" stroke="#acbdb3" stroke-dasharray="4 5"/>
  <path d="M52 168C105 168 95 110 145 108S217 132 251 114 285 81 307 76" stroke="#287b6c" stroke-width="4" stroke-linecap="round" marker-end="url(#arrow)"/>
  <circle cx="188" cy="167" r="27" fill="#d6a876" fill-opacity=".16" stroke="#b8844f" stroke-dasharray="4 4"/>
  <circle cx="188" cy="167" r="15" fill="#bd8c5b"/>
  <circle cx="210" cy="167" r="15" stroke="#bd8c5b" opacity=".5"/>
  <circle cx="232" cy="167" r="15" stroke="#bd8c5b" opacity=".25"/>
  <path d="M208 142h31" stroke="#986c43" stroke-width="1.5" marker-end="url(#arrow)"/>
  <text x="155" y="207" fill="#7e5b39" font-family="Arial,sans-serif" font-size="11">Moving obstacle</text>
  <rect x="33" y="154" width="35" height="26" rx="8" fill="#244e49"/>
  <path d="M37 150v7m25-7v7m-25 20v7m25-7v7" stroke="#244e49" stroke-width="4" stroke-linecap="round"/>
  <circle cx="64" cy="167" r="3" fill="#edf3ee"/>
  <text x="29" y="205" fill="#42645c" font-family="Arial,sans-serif" font-size="11">Go2</text>
  <circle cx="311" cy="75" r="7" fill="#edf3ee" stroke="#287b6c" stroke-width="2"/>
  <circle cx="311" cy="75" r="2.5" fill="#287b6c"/>
  <text x="284" y="57" fill="#42645c" font-family="Arial,sans-serif" font-size="11">Goal</text>
  <path d="M24 227h312" stroke="#cfddd3"/>
  <g font-family="Arial,sans-serif" font-size="10" fill="#42645c"><text x="25" y="251">OBSERVE</text><text x="103" y="251">PREDICT</text><text x="185" y="251">PLAN</text><text x="260" y="251">VALIDATE</text></g>
  <g stroke="#719387" marker-end="url(#arrow)"><path d="M81 247h12"/><path d="M162 247h12"/><path d="M231 247h17"/></g>
</svg>
